<svg
 xmlns="http://www.w3.org/2000/svg"
 xmlns:xlink="http://www.w3.org/1999/xlink"
 width="16px" height="17px">
<path fill-rule="evenodd"  fill="rgb(163, 36, 36)"
 d="M13.1000,8.969 L13.1000,12.1000 L13.939,12.937 L10.437,9.218 L10.309,9.221 L10.062,8.969 L6.000,8.969 C4.895,8.969 3.1000,8.073 3.1000,6.968 L3.1000,1.1000 C3.1000,0.895 4.895,-0.000 6.000,-0.000 L13.1000,-0.000 C15.105,-0.000 15.1000,0.895 15.1000,1.1000 L15.1000,6.968 C15.1000,8.073 15.105,8.969 13.1000,8.969 ZM9.528,9.969 L11.081,11.677 C10.769,11.879 10.399,12.000 9.1000,12.000 L5.886,12.000 L2.094,16.156 L2.094,12.000 L2.000,12.000 C0.895,12.000 -0.000,11.105 -0.000,9.1000 L-0.000,4.1000 C-0.000,3.896 0.895,2.1000 2.000,2.1000 L2.1000,2.1000 L2.1000,7.969 C2.1000,9.073 3.895,9.969 4.1000,9.969 L9.528,9.969 Z"/>
</svg>